<svg id="레이어_1" data-name="레이어 1" xmlns="http://www.w3.org/2000/svg" xmlns:xlink="http://www.w3.org/1999/xlink" viewBox="0 0 111 59.11"><defs><style>.cls-1{fill:none;}.cls-2{clip-path:url(#clip-path);}.cls-3{fill:#fff;}.cls-4{fill:#0086d0;}</style><clipPath id="clip-path" transform="translate(0.01 0)"><rect class="cls-1" width="111" height="59"/></clipPath></defs><title>파비콘</title><g class="cls-2"><circle class="cls-3" cx="7.75" cy="46.63" r="1.52"/><path class="cls-3" d="M9.2,59s69.09.59,73.47-.77S74,44.89,74,44.89,61,26.18,84.08,19.67c0,0,4.77.74,6.2-1.56s.89-1.83,3-.55,7.89,1.88,8-2.84-3.94-5.61-6.72-5.78c0,0-10.72-9.72-21.61-8S50.07-.67,38.44,11.41,30,34.07,26.37,41.78,12.48,57.75,9.2,59Z" transform="translate(0.01 0)"/><g id="Isolation_Mode" data-name="Isolation Mode"><path id="Vector" class="cls-4" d="M7.62,58.35a4.18,4.18,0,0,1,.57-.23c2.54-.54,4.19-2.43,6-4.07A68.43,68.43,0,0,0,24.28,42.86a25.43,25.43,0,0,0,4.39-12.17c.57-5.14,1.68-10.1,4.39-14.61a23.63,23.63,0,0,1,5.41-5.95A43.41,43.41,0,0,1,51.65,2.46a43.83,43.83,0,0,1,9.9-2,72.42,72.42,0,0,1,15-.11A39.81,39.81,0,0,1,87.3,3,14.64,14.64,0,0,1,94,7.69c.23.32.41.58.86.48a5.18,5.18,0,0,1,2.82.41c3.71,1.24,4.62,3.51,4.43,7.2-.08,1.77-2.4,3.67-4.15,3.8a7.61,7.61,0,0,1-5.23-1.4c-.41-.29-.88-.51-1.32-.77-1.65,3.51-2.63,3.87-6.29,2.67a19.92,19.92,0,0,1-3.58-1.7A14.48,14.48,0,0,0,71.07,17c-1.23.27-2.42.6-3.59-.2-.42-.29-.83-.06-1.23.18a4.77,4.77,0,0,1-6.35-1.76c-.18-.32-.21-.81-.75-.83a3.07,3.07,0,0,0,1.53,3c1.91,1,3.87,1.66,5.94.41a.65.65,0,0,1,.68-.07,5.22,5.22,0,0,0,3.27.41c-4.54,4.69-7.83,9.65-7.21,16.35.28,3.06,1.28,6.57,2.38,7.72a12.3,12.3,0,0,0-.65-2.84,22.06,22.06,0,0,1-.54-10,17.8,17.8,0,0,1,3.1-6.51,27.58,27.58,0,0,1,2.71-3.41,5.27,5.27,0,0,1,4.54-1.93,14.12,14.12,0,0,1,7.24,2.33c.12.09.22.21.39.36a18.32,18.32,0,0,0-9.13,8.35,16,16,0,0,0-1.75,9.76,5,5,0,0,0,.6,1.83c3.14,5.51,7.19,10.18,13.3,12.25a26.68,26.68,0,0,0,13.69.75c2.17-.42,4.3-1,6.45-1.53.41-.09.82-.32,1.27-.14.11.61-.33.73-.69.85-3.88,1.24-7.43,3.4-11.47,4.28a55.92,55.92,0,0,1-15,1.59c-4.33-.22-8.67-.38-12.84-1.74A43.9,43.9,0,0,1,47.48,43.69c-2.18-2.44-3.19-5.56-3.86-8.78A23.46,23.46,0,0,1,46.71,17.8a10.39,10.39,0,0,1,3.56-4c-.46-2.32.32-4,2-4.37a2.8,2.8,0,0,1-.65,2,1.16,1.16,0,0,0,.54,1.88,8.48,8.48,0,0,0,3.18,1.06,3.48,3.48,0,0,0,3.72-2.08c.68-1.39,1.15-1.43,2.21-.32a13.19,13.19,0,0,0,3.19,2.16,1.48,1.48,0,0,0,2.19-.55c.43-.76,1-.75,1.6-.3a5.36,5.36,0,0,1,1.25,1.12,2.22,2.22,0,0,0,2.75.81,10.38,10.38,0,0,1,8.55,1.22A26.54,26.54,0,0,0,86.51,19c1.88.6,2.79.05,3.3-1.88.44-1.67.88-1.86,2.36-1,.94.54,1.86,1.11,2.83,1.61a4.14,4.14,0,0,0,5.1-1,2.56,2.56,0,0,0,.62-1.66,5.19,5.19,0,0,0-5-5.4,1.78,1.78,0,0,0-1.86.78c-.57.88-2.39.94-3.81.3-1.16-.52-2.28-1.22-3.66-.93a1.37,1.37,0,0,0-.82.41c-1.1,1.12-2.61,1.41-3.73.31C80.34,9,78.6,9,76.75,9.11a.54.54,0,0,1-.66-.3A5,5,0,0,1,79.87,8a4,4,0,0,1,2.19,1.18c1.14,1,1.74.87,2.85-.15s2.62-.88,4-.5c.85.24,1.63.69,2.47,1,.48.15,1,.26,1.42-.31s-.17-.9-.46-1.21a17.38,17.38,0,0,0-7.4-4.32C76.72.93,68.29,1,59.9,2.07c-7.88,1-14.7,4.55-20.79,9.68-4.09,3.44-6.22,7.9-7.6,12.91A82.16,82.16,0,0,0,30,33.59a27,27,0,0,1-5.74,12.26,84.15,84.15,0,0,1-9.75,10.22,13.12,13.12,0,0,1-4,2.64,2.5,2.5,0,0,1-2.83-.37Zm51.5-34.09A9.78,9.78,0,0,0,56.89,29,19.73,19.73,0,0,0,60.3,43.75,30.76,30.76,0,0,0,76.88,55.6a1.64,1.64,0,0,0,1.34,0c-.17-.47-.55-.43-.83-.52a35.13,35.13,0,0,1-15-9.72C58.33,41.16,55.19,30.77,59,25a.6.6,0,0,0,.1-.76Zm13.69.29C68.94,28.24,68,33,68.53,38c.59,5.82,3.9,10.15,8.53,13.5-3.6-3.57-6.85-7.48-7.69-12.64s0-10.07,3.45-14.27ZM56.64,17a3.82,3.82,0,0,0-1.52,1.24,28.57,28.57,0,0,0-3.58,5.86,15.21,15.21,0,0,0-1.39,7.77,1.75,1.75,0,0,0,.91,1.75C49.9,26.82,53.19,21.86,56.64,17ZM73.33,20.9a23.39,23.39,0,0,0-6,9C69.27,26.86,71.22,23.83,73.33,20.9ZM50.38,24.72c-1.83,3-2.87,9.76-.61,11.26C48.25,32.1,49.6,28.55,50.38,24.72Z" transform="translate(0.01 0)"/><path id="Vector_2" data-name="Vector 2" class="cls-4" d="M40.68,33.22a12.27,12.27,0,0,1,1,3.29,15.69,15.69,0,0,0,4.05,8.11c1.45,1.67,2.94,3.32,4.38,5,.3.34.8.77.31,1.24s-.92,0-1.26-.31a37.19,37.19,0,0,1-7.36-8.6c-1.47-2.52-1.49-5.32-1.56-8.11a.55.55,0,0,1,.4-.61Z" transform="translate(0.01 0)"/><path id="Vector_3" data-name="Vector 3" class="cls-4" d="M90.61,50.39a21.69,21.69,0,0,0,10.76-1c3.33-1.17,6.7-2.24,9.61-4.64.11.89-.37,1.23-.79,1.65-2.38,2.34-5.44,3.34-8.47,4.42a18.65,18.65,0,0,1-8.41,1A3.2,3.2,0,0,1,90.61,50.39Z" transform="translate(0.01 0)"/><path id="Vector_4" data-name="Vector 4" class="cls-4" d="M85.61,5.9C80,4.86,74.53,3.47,68.85,3.19,74.72,2.25,80.26,3.48,85.61,5.9Z" transform="translate(0.01 0)"/><path id="Vector_5" data-name="Vector 5" class="cls-4" d="M10.09,46.3C10,48,9.27,48.89,8,48.85A1.91,1.91,0,0,1,6.05,47a2.56,2.56,0,0,1,2.54-2.53c1.12.06,1.54.57,1.49,1.85Zm-1.32-.58c-.78.12-1.5.29-1.54,1.17a.68.68,0,0,0,1,.59C9.05,47.18,9,46.48,8.77,45.72Z" transform="translate(0.01 0)"/><path id="Vector_6" data-name="Vector 6" class="cls-4" d="M41.89,45.76a30.73,30.73,0,0,0,7.62,7.78C46.8,53.85,42,48.89,41.89,45.76Z" transform="translate(0.01 0)"/><path id="Vector_7" data-name="Vector 7" class="cls-4" d="M80.31,46c-1.27,0-1.88-.5-1.85-1.51s.59-1.75,1.54-1.77c1.23,0,2,.62,2,1.75S81.57,46,80.32,46Z" transform="translate(0.01 0)"/><path id="Vector_8" data-name="Vector 8" class="cls-4" d="M106.88,39.52c.05-.81.31-1.45,1.15-1.47s1.11.55,1.09,1.28-.35,1.55-1.3,1.54-.86-.78-.94-1.35Z" transform="translate(0.01 0)"/><path id="Vector_9" data-name="Vector 9" class="cls-4" d="M1.29,39.21c.68,0,1.17.33,1.14,1.09a1.25,1.25,0,0,1-1.29,1.33A1,1,0,0,1,0,40.52a1.21,1.21,0,0,1,1.29-1.31Z" transform="translate(0.01 0)"/><path id="Vector_10" data-name="Vector 10" class="cls-4" d="M98.3,20.77c1.12-1,2.72,0,3.77-1.1.55.72.24,1.08-.24,1.39A3.15,3.15,0,0,1,98.3,20.77Z" transform="translate(0.01 0)"/><path id="Vector_11" data-name="Vector 11" class="cls-4" d="M85,41c.64,0,1.07.3,1.11,1A1.09,1.09,0,0,1,85,43.31a1,1,0,0,1-1.2-1c0-.8.47-1.13,1.19-1.24Z" transform="translate(0.01 0)"/><path id="Vector_12" data-name="Vector 12" class="cls-4" d="M12.43,43.76c.63.05,1,.37,1,1S13.11,46,12.37,46A1,1,0,0,1,11.3,44.9c0-.73.47-1.06,1.12-1.15Z" transform="translate(0.01 0)"/><path id="Vector_13" data-name="Vector 13" class="cls-4" d="M80.33,37.83c0,.58-.26,1-.85,1a.86.86,0,0,1-1-.93.87.87,0,0,1,.83-1,.91.91,0,0,1,1,.93Z" transform="translate(0.01 0)"/></g></g></svg>